<?xml version="1.0" encoding="utf-8"?>
<!-- Generator: Adobe Illustrator 23.0.6, SVG Export Plug-In . SVG Version: 6.00 Build 0)  -->
<svg version="1.1" xmlns="http://www.w3.org/2000/svg" xmlns:xlink="http://www.w3.org/1999/xlink" x="0px" y="0px"
	 viewBox="0 0 720 720" style="enable-background:new 0 0 720 720;" xml:space="preserve">
<style type="text/css">
	.st0{display:none;}
	.st1{display:inline;}
	.st2{fill:#37393E;}
	.st3{fill:#FFFFFF;}
	.st4{display:inline;fill:#B9D7D7;}
	.st5{display:inline;fill:#FFFFFF;}
	.st6{display:inline;fill:none;stroke:#37393E;stroke-width:19;stroke-miterlimit:10;}
	.st7{display:inline;fill:none;stroke:#B9D7D7;stroke-width:19;stroke-miterlimit:10;}
	.st8{fill:#B9D7D7;}
	.st9{fill:none;stroke:#B9D7D7;stroke-width:19;stroke-miterlimit:10;}
	.st10{fill:none;stroke:#37393E;stroke-width:19;stroke-miterlimit:10;}
</style>
<g id="white_on_grey" class="st0">
	<g id="grey_background" class="st1">
		<path class="st2" d="M360.21,60.08c82.71,0,153.27,29.34,211.68,88.03c58.68,58.41,88.03,128.97,88.03,211.68
			c0,83-29.34,153.7-88.03,212.1c-58.41,58.68-128.97,88.03-211.68,88.03c-83,0-153.7-29.34-212.1-88.03
			c-58.68-58.4-88.03-129.11-88.03-212.1c0-82.71,29.34-153.28,88.03-211.68C206.51,89.42,277.21,60.08,360.21,60.08z"/>
	</g>
	<g id="Layer_2" class="st1">
		<path class="st3" d="M251.87,145.96c0-1.36,0.27-3.68,0.82-6.96c0.27-3.27,0.27-5.73,0-7.37c0-5.73-1.64-9.96-4.91-12.69h-1.23
			c-3.27,1.91-7.78,4.09-13.51,6.55c-7.1,2.73-11.46,4.5-13.1,5.32c-9.82,4.64-16.51,10.51-20.06,17.6
			c-2.73,5.73-5.05,14.6-6.96,26.61c-3.01,17.19-4.91,27.16-5.73,29.88c-7.37,29.75-12.97,47.08-16.78,51.99
			c-4.09-4.36-8.87-12.69-14.33-24.97c-5.19-12.01-10.23-20.06-15.15-24.15c-37.12,53.77-53.49,109.03-49.12,165.79
			c3,39.57,13.23,76.14,30.7,109.71c14.19,26.75,30.15,47.76,47.9,63.04c-1.09-9.55-0.82-23.6,0.82-42.16
			c1.36-17.46,1.09-30.97-0.82-40.53c-0.55-3.82-2.46-9.14-5.73-15.97c-3.55-8.19-5.87-13.64-6.96-16.37
			c-10.64-32.47-14.33-64.81-11.05-97.02c1.09-11.73,3-18.28,5.73-19.65c4.09,1.91,7.64,7.23,10.64,15.97
			c3,8.74,6.41,14.19,10.23,16.37c1.36-2.46,4.91-11.87,10.64-28.25c4.36-11.73,9.28-19.65,14.74-23.74
			c2.46,34.12,3.54,80.1,3.27,137.96c-0.55,77.24-0.68,124.04-0.41,140.41c11.73,14.47,27.7,24.7,47.9,30.7
			C251.05,350.78,251.87,198.09,251.87,145.96z"/>
		<path class="st3" d="M441.65,614.49c2.46-92.78,2.46-185.3,0-277.55l-35.21-1.23c-41.21-1.64-64.68-3.54-70.41-5.73
			c0-9.28-0.14-40.25-0.41-92.93c-0.28-40.66,0.27-71.23,1.64-91.7c7.09-3.27,16.51-4.64,28.25-4.09
			c12.01,0.28,20.47,2.6,25.38,6.96c0,7.64-0.14,29.75-0.41,66.32c0,27.29,0.54,48.85,1.64,64.68c16.64,2.73,33.16,2.73,49.53,0
			c2.46-57.58,2.46-115.3,0-173.16c-22.38-7.09-48.71-10.78-79.01-11.05c-31.66-0.27-57.86,3.41-78.6,11.05
			c-1.91,44.21-1.5,137.69,1.23,280.42c9.28,1.37,26.88,1.78,52.81,1.23c24.01-0.82,41.07,0.14,51.17,2.87
			c2.72,67.14,1.9,129.09-2.46,185.85c-8.19,3.27-17.47,4.91-27.84,4.91c-12.28,0.28-19.93-2.31-22.92-7.78
			c-1.91-3.27-2.46-22.52-1.64-57.72c1.09-46.39,1.09-70.82,0-73.28c-24.02-3.27-40.8-2.73-50.35,1.64
			c-2.73,76.96-2.32,133.73,1.23,170.3c20.47,9.01,46.39,13.51,77.78,13.51C393.89,627.73,420.09,623.23,441.65,614.49z"/>
		<path class="st3" d="M474.58,601.12c70.41-30.02,117.76-82.55,142.05-157.61c-4.37-1.36-12.42-1.77-24.15-1.23
			c-11.46,0.28-19.38-0.27-23.74-1.64c-2.19,0.28-4.09,2.6-5.73,6.96c-1.37,4.09-3.68,6.01-6.96,5.73
			c-5.19-61.67-5.19-123.08,0-184.21c2.46,0.55,4.5,2.19,6.14,4.91c1.9,3.27,4.09,5.46,6.55,6.55c0.54,0,16.92,0,49.12,0
			c-9.56-35.47-27.57-68.09-54.04-97.84c-26.48-29.47-56.22-50.76-89.24-63.86c-1.09,13.92-1.09,32.62,0,56.08
			c1.64,2.19,6.55,5.87,14.74,11.05c6.82,4.09,10.78,8.33,11.87,12.69v326.26c-2.19,4.64-6.42,9.28-12.69,13.92
			c-9.01,6.28-14.19,10.1-15.56,11.46c0.27,2.73,0.27,11.46,0,26.2C472.67,587.2,473.21,595.39,474.58,601.12z"/>
	</g>
</g>
<g id="negative_with_blue" class="st0">
	<path class="st4" d="M360.21,59.83c82.71,0,153.27,29.34,211.68,88.03c58.68,58.41,88.03,128.97,88.03,211.68
		c0,83-29.34,153.7-88.03,212.1c-58.41,58.68-128.97,88.03-211.68,88.03c-83,0-153.7-29.34-212.1-88.03
		c-58.68-58.4-88.03-129.11-88.03-212.1c0-82.71,29.34-153.28,88.03-211.68C206.51,89.17,277.21,59.83,360.21,59.83z"/>
	<path class="st5" d="M251.87,144.21c0-1.36,0.27-3.68,0.82-6.96c0.27-3.27,0.27-5.73,0-7.37c0-5.73-1.64-9.96-4.91-12.69h-1.23
		c-3.27,1.91-7.78,4.09-13.51,6.55c-7.1,2.73-11.46,4.5-13.1,5.32c-9.82,4.64-16.51,10.51-20.06,17.6
		c-2.73,5.73-5.05,14.6-6.96,26.61c-3.01,17.19-4.91,27.16-5.73,29.88c-7.37,29.75-12.97,47.08-16.78,51.99
		c-4.09-4.36-8.87-12.69-14.33-24.97c-5.19-12.01-10.23-20.06-15.15-24.15c-37.12,53.77-53.49,109.03-49.12,165.79
		c3,39.57,13.23,76.14,30.7,109.71c14.19,26.75,30.15,47.76,47.9,63.04c-1.09-9.55-0.82-23.6,0.82-42.16
		c1.36-17.46,1.09-30.97-0.82-40.53c-0.55-3.82-2.46-9.14-5.73-15.97c-3.55-8.19-5.87-13.64-6.96-16.37
		c-10.64-32.47-14.33-64.81-11.05-97.02c1.09-11.73,3-18.28,5.73-19.65c4.09,1.91,7.64,7.23,10.64,15.97
		c3,8.74,6.41,14.19,10.23,16.37c1.36-2.46,4.91-11.87,10.64-28.25c4.36-11.73,9.28-19.65,14.74-23.74
		c2.46,34.12,3.54,80.1,3.27,137.96c-0.55,77.24-0.68,124.04-0.41,140.41c11.73,14.47,27.7,24.7,47.9,30.7
		C251.05,349.04,251.87,196.34,251.87,144.21z"/>
	<path class="st5" d="M438.77,612.74c2.46-92.78,2.46-185.3,0-277.55l-35.21-1.23c-41.21-1.64-64.68-3.54-70.41-5.73
		c0-9.28-0.14-40.25-0.41-92.93c-0.28-40.66,0.27-71.23,1.64-91.7c7.09-3.27,16.51-4.64,28.25-4.09c12.01,0.28,20.47,2.6,25.38,6.96
		c0,7.64-0.14,29.75-0.41,66.32c0,27.29,0.54,48.85,1.64,64.68c16.64,2.73,33.16,2.73,49.53,0c2.46-57.58,2.46-115.3,0-173.16
		c-22.38-7.09-48.71-10.78-79.01-11.05c-31.66-0.27-57.86,3.41-78.6,11.05c-1.91,44.21-1.5,137.69,1.23,280.42
		c9.28,1.37,26.88,1.78,52.81,1.23c24.01-0.82,41.07,0.14,51.17,2.87c2.72,67.14,1.9,129.09-2.46,185.85
		c-8.19,3.27-17.47,4.91-27.84,4.91c-12.28,0.28-19.93-2.31-22.92-7.78c-1.91-3.27-2.46-22.52-1.64-57.72
		c1.09-46.39,1.09-70.82,0-73.28c-24.02-3.27-40.8-2.73-50.35,1.64c-2.73,76.96-2.32,133.73,1.23,170.3
		c20.47,9.01,46.39,13.51,77.78,13.51C391.01,625.98,417.21,621.48,438.77,612.74z"/>
	<path class="st5" d="M466.7,600.86c70.41-30.02,117.76-82.55,142.05-157.61c-4.37-1.36-12.42-1.77-24.15-1.23
		c-11.46,0.28-19.38-0.27-23.74-1.64c-2.19,0.28-4.09,2.6-5.73,6.96c-1.37,4.09-3.68,6.01-6.96,5.73
		c-5.19-61.67-5.19-123.08,0-184.21c2.46,0.55,4.5,2.19,6.14,4.91c1.9,3.27,4.09,5.46,6.55,6.55c0.54,0,16.92,0,49.12,0
		c-9.56-35.47-27.57-68.09-54.04-97.84c-26.48-29.47-56.22-50.76-89.24-63.86c-1.09,13.92-1.09,32.62,0,56.08
		c1.64,2.19,6.55,5.87,14.74,11.05c6.82,4.09,10.78,8.33,11.87,12.69v326.26c-2.19,4.64-6.42,9.28-12.69,13.92
		c-9.01,6.28-14.19,10.1-15.56,11.46c0.27,2.73,0.27,11.46,0,26.2C464.78,586.94,465.33,595.13,466.7,600.86z"/>
</g>
<g id="blue_and_dark_grey" class="st0">
	<circle class="st6" cx="360.45" cy="360" r="293"/>
	<path class="st4" d="M252.78,144.47c0-1.36,0.27-3.68,0.82-6.96c0.27-3.27,0.27-5.73,0-7.37c0-5.73-1.64-9.96-4.91-12.69h-1.23
		c-3.27,1.91-7.78,4.09-13.51,6.55c-7.1,2.73-11.46,4.5-13.1,5.32c-9.82,4.64-16.51,10.51-20.06,17.6
		c-2.73,5.73-5.05,14.6-6.96,26.61c-3.01,17.19-4.91,27.16-5.73,29.88c-7.37,29.75-12.97,47.08-16.78,51.99
		c-4.09-4.36-8.87-12.69-14.33-24.97c-5.19-12.01-10.23-20.06-15.15-24.15c-37.12,53.77-53.49,109.03-49.12,165.79
		c3,39.57,13.23,76.14,30.7,109.71c14.19,26.75,30.15,47.76,47.9,63.04c-1.09-9.55-0.82-23.6,0.82-42.16
		c1.36-17.46,1.09-30.97-0.82-40.53c-0.55-3.82-2.46-9.14-5.73-15.97c-3.55-8.19-5.87-13.64-6.96-16.37
		c-10.64-32.47-14.33-64.81-11.05-97.02c1.09-11.73,3-18.28,5.73-19.65c4.09,1.91,7.64,7.23,10.64,15.97
		c3,8.74,6.41,14.19,10.23,16.37c1.36-2.46,4.91-11.87,10.64-28.25c4.36-11.73,9.28-19.65,14.74-23.74
		c2.46,34.12,3.54,80.1,3.27,137.96c-0.55,77.24-0.68,124.04-0.41,140.41c11.73,14.47,27.7,24.7,47.9,30.7
		C251.96,349.29,252.78,196.6,252.78,144.47z"/>
	<path class="st4" d="M439.68,612.99c2.46-92.78,2.46-185.3,0-277.55l-35.21-1.23c-41.21-1.64-64.68-3.54-70.41-5.73
		c0-9.28-0.14-40.25-0.41-92.93c-0.28-40.66,0.27-71.23,1.64-91.7c7.09-3.27,16.51-4.64,28.25-4.09c12.01,0.28,20.47,2.6,25.38,6.96
		c0,7.64-0.14,29.75-0.41,66.32c0,27.29,0.54,48.85,1.64,64.68c16.64,2.73,33.16,2.73,49.53,0c2.46-57.58,2.46-115.3,0-173.16
		c-22.38-7.09-48.71-10.78-79.01-11.05c-31.66-0.27-57.86,3.41-78.6,11.05c-1.91,44.21-1.5,137.69,1.23,280.42
		c9.28,1.37,26.88,1.78,52.81,1.23c24.01-0.82,41.07,0.14,51.17,2.87c2.72,67.14,1.9,129.09-2.46,185.85
		c-8.19,3.27-17.47,4.91-27.84,4.91c-12.28,0.28-19.93-2.31-22.92-7.78c-1.91-3.27-2.46-22.52-1.64-57.72
		c1.09-46.39,1.09-70.82,0-73.28c-24.02-3.27-40.8-2.73-50.35,1.64c-2.73,76.96-2.32,133.73,1.23,170.3
		c20.47,9.01,46.39,13.51,77.78,13.51C391.92,626.24,418.12,621.73,439.68,612.99z"/>
	<path class="st4" d="M467.6,601.12c70.41-30.02,117.76-82.55,142.05-157.61c-4.37-1.36-12.42-1.77-24.15-1.23
		c-11.46,0.28-19.38-0.27-23.74-1.64c-2.19,0.28-4.09,2.6-5.73,6.96c-1.37,4.09-3.68,6.01-6.96,5.73
		c-5.19-61.67-5.19-123.08,0-184.21c2.46,0.55,4.5,2.19,6.14,4.91c1.9,3.27,4.09,5.46,6.55,6.55c0.54,0,16.92,0,49.12,0
		c-9.56-35.47-27.57-68.09-54.04-97.84c-26.48-29.47-56.23-50.76-89.24-63.86c-1.09,13.92-1.09,32.62,0,56.08
		c1.64,2.19,6.55,5.87,14.74,11.05c6.82,4.09,10.78,8.33,11.87,12.69v326.26c-2.19,4.64-6.42,9.28-12.69,13.92
		c-9.01,6.28-14.19,10.1-15.56,11.46c0.27,2.73,0.27,11.46,0,26.2C465.69,587.2,466.23,595.39,467.6,601.12z"/>
</g>
<g id="Layer_7" class="st0">
	<circle class="st7" cx="359.24" cy="360" r="293"/>
	<g class="st1">
		<path class="st8" d="M254.57,144.47c0-1.36,0.27-3.68,0.82-6.96c0.27-3.27,0.27-5.73,0-7.37c0-5.73-1.64-9.96-4.91-12.69h-1.23
			c-3.27,1.91-7.78,4.09-13.51,6.55c-7.1,2.73-11.46,4.5-13.1,5.32c-9.82,4.64-16.51,10.51-20.06,17.6
			c-2.73,5.73-5.05,14.6-6.96,26.61c-3.01,17.19-4.91,27.16-5.73,29.88c-7.37,29.75-12.97,47.08-16.78,51.99
			c-4.09-4.36-8.87-12.69-14.33-24.97c-5.19-12.01-10.23-20.06-15.15-24.15c-37.12,53.77-53.49,109.03-49.12,165.79
			c3,39.57,13.23,76.14,30.7,109.71c14.19,26.75,30.15,47.76,47.9,63.04c-1.09-9.55-0.82-23.6,0.82-42.16
			c1.36-17.46,1.09-30.97-0.82-40.53c-0.55-3.82-2.46-9.14-5.73-15.97c-3.55-8.19-5.87-13.64-6.96-16.37
			c-10.64-32.47-14.33-64.81-11.05-97.02c1.09-11.73,3-18.28,5.73-19.65c4.09,1.91,7.64,7.23,10.64,15.97
			c3,8.74,6.41,14.19,10.23,16.37c1.36-2.46,4.91-11.87,10.64-28.25c4.36-11.73,9.28-19.65,14.74-23.74
			c2.46,34.12,3.54,80.1,3.27,137.96c-0.55,77.24-0.68,124.04-0.41,140.41c11.73,14.47,27.7,24.7,47.9,30.7
			C253.75,349.29,254.57,196.6,254.57,144.47z"/>
		<path class="st8" d="M441.47,612.99c2.46-92.78,2.46-185.3,0-277.55l-35.21-1.23c-41.21-1.64-64.68-3.54-70.41-5.73
			c0-9.28-0.14-40.25-0.41-92.93c-0.28-40.66,0.27-71.23,1.64-91.7c7.09-3.27,16.51-4.64,28.25-4.09
			c12.01,0.28,20.47,2.6,25.38,6.96c0,7.64-0.14,29.75-0.41,66.32c0,27.29,0.54,48.85,1.64,64.68c16.64,2.73,33.16,2.73,49.53,0
			c2.46-57.58,2.46-115.3,0-173.16c-22.38-7.09-48.71-10.78-79.01-11.05c-31.66-0.27-57.86,3.41-78.6,11.05
			c-1.91,44.21-1.5,137.69,1.23,280.42c9.28,1.37,26.88,1.78,52.81,1.23c24.01-0.82,41.07,0.14,51.17,2.87
			c2.72,67.14,1.9,129.09-2.46,185.85c-8.19,3.27-17.47,4.91-27.84,4.91c-12.28,0.28-19.93-2.31-22.92-7.78
			c-1.91-3.27-2.46-22.52-1.64-57.72c1.09-46.39,1.09-70.82,0-73.28c-24.02-3.27-40.8-2.73-50.35,1.64
			c-2.73,76.96-2.32,133.73,1.23,170.3c20.47,9.01,46.39,13.51,77.78,13.51C393.71,626.24,419.91,621.73,441.47,612.99z"/>
		<path class="st8" d="M469.39,601.12c70.41-30.02,117.76-82.55,142.05-157.61c-4.37-1.36-12.42-1.77-24.15-1.23
			c-11.46,0.28-19.38-0.27-23.74-1.64c-2.19,0.28-4.09,2.6-5.73,6.96c-1.37,4.09-3.68,6.01-6.96,5.73
			c-5.19-61.67-5.19-123.08,0-184.21c2.46,0.55,4.5,2.19,6.14,4.91c1.9,3.27,4.09,5.46,6.55,6.55c0.54,0,16.92,0,49.12,0
			c-9.56-35.47-27.57-68.09-54.04-97.84c-26.48-29.47-56.22-50.76-89.24-63.86c-1.09,13.92-1.09,32.62,0,56.08
			c1.64,2.19,6.55,5.87,14.74,11.05c6.82,4.09,10.78,8.33,11.87,12.69v326.26c-2.19,4.64-6.42,9.28-12.69,13.92
			c-9.01,6.28-14.19,10.1-15.56,11.46c0.27,2.73,0.27,11.46,0,26.2C467.48,587.2,468.02,595.39,469.39,601.12z"/>
	</g>
</g>
<g id="grey_and_blue" class="st0">
	<g class="st1">
		<circle class="st9" cx="363.12" cy="359" r="293"/>
		<g>
			<path class="st8" d="M258.45,143.47c0-1.36,0.27-3.68,0.82-6.96c0.27-3.27,0.27-5.73,0-7.37c0-5.73-1.64-9.96-4.91-12.69h-1.23
				c-3.27,1.91-7.78,4.09-13.51,6.55c-7.1,2.73-11.46,4.5-13.1,5.32c-9.82,4.64-16.51,10.51-20.06,17.6
				c-2.73,5.73-5.05,14.6-6.96,26.61c-3.01,17.19-4.91,27.16-5.73,29.88c-7.37,29.75-12.97,47.08-16.78,51.99
				c-4.09-4.36-8.87-12.69-14.33-24.97c-5.19-12.01-10.23-20.06-15.15-24.15c-37.12,53.77-53.49,109.03-49.12,165.79
				c3,39.57,13.23,76.14,30.7,109.71c14.19,26.75,30.15,47.76,47.9,63.04c-1.09-9.55-0.82-23.6,0.82-42.16
				c1.36-17.46,1.09-30.97-0.82-40.53c-0.55-3.82-2.46-9.14-5.73-15.97c-3.55-8.19-5.87-13.64-6.96-16.37
				c-10.64-32.47-14.33-64.81-11.05-97.02c1.09-11.73,3-18.28,5.73-19.65c4.09,1.91,7.64,7.23,10.64,15.97
				c3,8.74,6.41,14.19,10.23,16.37c1.36-2.46,4.91-11.87,10.64-28.25c4.36-11.73,9.28-19.65,14.74-23.74
				c2.46,34.12,3.54,80.1,3.27,137.96c-0.55,77.24-0.68,124.04-0.41,140.41c11.73,14.47,27.7,24.7,47.9,30.7
				C257.63,348.29,258.45,195.6,258.45,143.47z"/>
			<path class="st8" d="M445.35,611.99c2.46-92.78,2.46-185.3,0-277.55l-35.21-1.23c-41.21-1.64-64.68-3.54-70.41-5.73
				c0-9.28-0.14-40.25-0.41-92.93c-0.28-40.66,0.27-71.23,1.64-91.7c7.09-3.27,16.51-4.64,28.25-4.09
				c12.01,0.28,20.47,2.6,25.38,6.96c0,7.64-0.14,29.75-0.41,66.32c0,27.29,0.54,48.85,1.64,64.68c16.64,2.73,33.16,2.73,49.53,0
				c2.46-57.58,2.46-115.3,0-173.16c-22.38-7.09-48.71-10.78-79.01-11.05c-31.66-0.27-57.86,3.41-78.6,11.05
				c-1.91,44.21-1.5,137.69,1.23,280.42c9.28,1.37,26.88,1.78,52.81,1.23c24.01-0.82,41.07,0.14,51.17,2.87
				c2.72,67.14,1.9,129.09-2.46,185.85c-8.19,3.27-17.47,4.91-27.84,4.91c-12.28,0.28-19.93-2.31-22.92-7.78
				c-1.91-3.27-2.46-22.52-1.64-57.72c1.09-46.39,1.09-70.82,0-73.28c-24.02-3.27-40.8-2.73-50.35,1.64
				c-2.73,76.96-2.32,133.73,1.23,170.3c20.47,9.01,46.39,13.51,77.78,13.51C397.59,625.24,423.79,620.73,445.35,611.99z"/>
			<path class="st8" d="M473.27,600.12c70.41-30.02,117.76-82.55,142.05-157.61c-4.37-1.36-12.42-1.77-24.15-1.23
				c-11.46,0.28-19.38-0.27-23.74-1.64c-2.19,0.28-4.09,2.6-5.73,6.96c-1.37,4.09-3.68,6.01-6.96,5.73
				c-5.19-61.67-5.19-123.08,0-184.21c2.46,0.55,4.5,2.19,6.14,4.91c1.9,3.27,4.09,5.46,6.55,6.55c0.54,0,16.92,0,49.12,0
				c-9.56-35.47-27.57-68.09-54.04-97.84c-26.48-29.47-56.22-50.76-89.24-63.86c-1.09,13.92-1.09,32.62,0,56.08
				c1.64,2.19,6.55,5.87,14.74,11.05c6.82,4.09,10.78,8.33,11.87,12.69v326.26c-2.19,4.64-6.42,9.28-12.69,13.92
				c-9.01,6.28-14.19,10.1-15.56,11.46c0.27,2.73,0.27,11.46,0,26.2C471.36,586.2,471.9,594.39,473.27,600.12z"/>
		</g>
		<circle class="st10" cx="356.88" cy="361" r="293"/>
		<path class="st2" d="M249.2,147.21c0-1.36,0.27-3.68,0.82-6.96c0.27-3.27,0.27-5.73,0-7.37c0-5.73-1.64-9.96-4.91-12.69h-1.23
			c-3.27,1.91-7.78,4.09-13.51,6.55c-7.1,2.73-11.46,4.5-13.1,5.32c-9.82,4.64-16.51,10.51-20.06,17.6
			c-2.73,5.73-5.05,14.6-6.96,26.61c-3.01,17.19-4.91,27.16-5.73,29.88c-7.37,29.75-12.97,47.08-16.78,51.99
			c-4.09-4.36-8.87-12.69-14.33-24.97c-5.19-12.01-10.23-20.06-15.15-24.15c-37.12,53.77-53.49,109.03-49.12,165.79
			c3,39.57,13.23,76.14,30.7,109.71c14.19,26.75,30.15,47.76,47.9,63.04c-1.09-9.55-0.82-23.6,0.82-42.16
			c1.36-17.46,1.09-30.97-0.82-40.53c-0.55-3.82-2.46-9.14-5.73-15.97c-3.55-8.19-5.87-13.64-6.96-16.37
			c-10.64-32.47-14.33-64.81-11.05-97.02c1.09-11.73,3-18.28,5.73-19.65c4.09,1.91,7.64,7.23,10.64,15.97
			c3,8.74,6.41,14.19,10.23,16.37c1.36-2.46,4.91-11.87,10.64-28.25c4.36-11.73,9.28-19.65,14.74-23.74
			c2.46,34.12,3.54,80.1,3.27,137.96c-0.55,77.24-0.68,124.04-0.41,140.41c11.73,14.47,27.7,24.7,47.9,30.7
			C248.38,352.04,249.2,199.34,249.2,147.21z"/>
		<path class="st2" d="M436.11,613.99c2.46-92.78,2.46-185.3,0-277.55l-35.21-1.23c-41.21-1.64-64.68-3.54-70.41-5.73
			c0-9.28-0.14-40.25-0.41-92.93c-0.28-40.66,0.27-71.23,1.64-91.7c7.09-3.27,16.51-4.64,28.25-4.09
			c12.01,0.28,20.47,2.6,25.38,6.96c0,7.64-0.14,29.75-0.41,66.32c0,27.29,0.54,48.85,1.64,64.68c16.64,2.73,33.16,2.73,49.53,0
			c2.46-57.58,2.46-115.3,0-173.16c-22.38-7.09-48.71-10.78-79.01-11.05c-31.66-0.27-57.86,3.41-78.6,11.05
			c-1.91,44.21-1.5,137.69,1.23,280.42c9.28,1.37,26.88,1.78,52.81,1.23c24.01-0.82,41.07,0.14,51.17,2.87
			c2.72,67.14,1.9,129.09-2.46,185.85c-8.19,3.27-17.47,4.91-27.84,4.91c-12.28,0.28-19.93-2.31-22.92-7.78
			c-1.91-3.27-2.46-22.52-1.64-57.72c1.09-46.39,1.09-70.82,0-73.28c-24.02-3.27-40.8-2.73-50.35,1.64
			c-2.73,76.96-2.32,133.73,1.23,170.3c20.47,9.01,46.39,13.51,77.78,13.51C388.34,627.24,414.54,622.73,436.11,613.99z"/>
		<path class="st2" d="M464.03,603.12c70.41-30.02,117.76-82.55,142.05-157.61c-4.37-1.36-12.42-1.77-24.15-1.23
			c-11.46,0.28-19.38-0.27-23.74-1.64c-2.19,0.28-4.09,2.6-5.73,6.96c-1.37,4.09-3.68,6.01-6.96,5.73
			c-5.19-61.67-5.19-123.08,0-184.21c2.46,0.55,4.5,2.19,6.14,4.91c1.9,3.27,4.09,5.46,6.55,6.55c0.54,0,16.92,0,49.12,0
			c-9.56-35.47-27.57-68.09-54.04-97.84c-26.48-29.47-56.23-50.76-89.24-63.86c-1.09,13.92-1.09,32.62,0,56.08
			c1.64,2.19,6.55,5.87,14.74,11.05c6.82,4.09,10.78,8.33,11.87,12.69v326.26c-2.19,4.64-6.42,9.28-12.69,13.92
			c-9.01,6.28-14.19,10.1-15.56,11.46c0.27,2.73,0.27,11.46,0,26.2C462.12,589.2,462.66,597.39,464.03,603.12z"/>
	</g>
</g>
<g id="grey_border_1_">
	<g id="grey_border">
		<circle class="st10" cx="360" cy="360" r="293"/>
	</g>
	<path class="st2" d="M252.32,146.21c0-1.36,0.27-3.68,0.82-6.96c0.27-3.27,0.27-5.73,0-7.37c0-5.73-1.64-9.96-4.91-12.69H247
		c-3.27,1.91-7.78,4.09-13.51,6.55c-7.1,2.73-11.46,4.5-13.1,5.32c-9.82,4.64-16.51,10.51-20.06,17.6
		c-2.73,5.73-5.05,14.6-6.96,26.61c-3.01,17.19-4.91,27.16-5.73,29.88c-7.37,29.75-12.97,47.08-16.78,51.99
		c-4.09-4.36-8.87-12.69-14.33-24.97c-5.19-12.01-10.23-20.06-15.15-24.15c-37.12,53.77-53.49,109.03-49.12,165.79
		c3,39.57,13.23,76.14,30.7,109.71c14.19,26.75,30.15,47.76,47.9,63.04c-1.09-9.55-0.82-23.6,0.82-42.16
		c1.36-17.46,1.09-30.97-0.82-40.53c-0.55-3.82-2.46-9.14-5.73-15.97c-3.55-8.19-5.87-13.64-6.96-16.37
		c-10.64-32.47-14.33-64.81-11.05-97.02c1.09-11.73,3-18.28,5.73-19.65c4.09,1.91,7.64,7.23,10.64,15.97
		c3,8.74,6.41,14.19,10.23,16.37c1.36-2.46,4.91-11.87,10.64-28.25c4.36-11.73,9.28-19.65,14.74-23.74
		c2.46,34.12,3.54,80.1,3.27,137.96c-0.55,77.24-0.68,124.04-0.41,140.41c11.73,14.47,27.7,24.7,47.9,30.7
		C251.51,351.04,252.32,198.34,252.32,146.21z"/>
	<path class="st2" d="M439.23,612.99c2.46-92.78,2.46-185.3,0-277.55l-35.21-1.23c-41.21-1.64-64.68-3.54-70.41-5.73
		c0-9.28-0.14-40.25-0.41-92.93c-0.28-40.66,0.27-71.23,1.64-91.7c7.09-3.27,16.51-4.64,28.25-4.09c12.01,0.28,20.47,2.6,25.38,6.96
		c0,7.64-0.14,29.75-0.41,66.32c0,27.29,0.54,48.85,1.64,64.68c16.64,2.73,33.16,2.73,49.53,0c2.46-57.58,2.46-115.3,0-173.16
		c-22.38-7.09-48.71-10.78-79.01-11.05c-31.66-0.27-57.86,3.41-78.6,11.05c-1.91,44.21-1.5,137.69,1.23,280.42
		c9.28,1.37,26.88,1.78,52.81,1.23c24.01-0.82,41.07,0.14,51.17,2.87c2.72,67.14,1.9,129.09-2.46,185.85
		c-8.19,3.27-17.47,4.91-27.84,4.91c-12.28,0.28-19.93-2.31-22.92-7.78c-1.91-3.27-2.46-22.52-1.64-57.72
		c1.09-46.39,1.09-70.82,0-73.28c-24.02-3.27-40.8-2.73-50.35,1.64c-2.73,76.96-2.32,133.73,1.23,170.3
		c20.47,9.01,46.39,13.51,77.78,13.51C391.46,626.24,417.66,621.73,439.23,612.99z"/>
	<path class="st2" d="M467.15,602.12c70.41-30.02,117.76-82.55,142.05-157.61c-4.37-1.36-12.42-1.77-24.15-1.23
		c-11.46,0.28-19.38-0.27-23.74-1.64c-2.19,0.28-4.09,2.6-5.73,6.96c-1.37,4.09-3.68,6.01-6.96,5.73
		c-5.19-61.67-5.19-123.08,0-184.21c2.46,0.55,4.5,2.19,6.14,4.91c1.9,3.27,4.09,5.46,6.55,6.55c0.54,0,16.92,0,49.12,0
		c-9.56-35.47-27.57-68.09-54.04-97.84c-26.48-29.47-56.23-50.76-89.24-63.86c-1.09,13.92-1.09,32.62,0,56.08
		c1.64,2.19,6.55,5.87,14.74,11.05c6.82,4.09,10.78,8.33,11.87,12.69v326.26c-2.19,4.64-6.42,9.28-12.69,13.92
		c-9.01,6.28-14.19,10.1-15.56,11.46c0.27,2.73,0.27,11.46,0,26.2C465.24,588.2,465.78,596.39,467.15,602.12z"/>
</g>
</svg>
